PathFileType	4	(X/Y/Z)	Patient5_TMGait_0pt45_1_right_13.trc.trc
DataRate	CameraRate	NumFrames	NumMarkers	Units	OrigDataRate	OrigDataStartFrame	OrigNumFrames
63.348416289593	63.348416289593	5	32	mm	63.348416289593	71	       141
Frame#	Time	R.ASIS			L.ASIS			Chest			R.Shoulder			Neck			L.Shoulder			L.Elbow			L.Wrist			R.Elbow			R.Wrist			L.Thigh.Superior			L.Thigh.Lateral			L.Thigh.Inferior			L.Patella			L.Shank.Superior			L.Shank.Lateral			L.Shank.Inferior			L.Heel			L.Midfoot.Lateral			L.Midfoot.Superior			L.Toe			R.Thigh.Superior			R.Thigh.Lateral			R.Thigh.Inferior			R.Patella			R.Shank.Superior			R.Shank.Lateral			R.Shank.Inferior			R.Heel			R.Midfoot.Lateral			R.Midfoot.Superior			R.Toe			
		X1	Y1	Z1	X2	Y2	Z2	X3	Y3	Z3	X4	Y4	Z4	X5	Y5	Z5	X6	Y6	Z6	X7	Y7	Z7	X8	Y8	Z8	X9	Y9	Z9	X10	Y10	Z10	X11	Y11	Z11	X12	Y12	Z12	X13	Y13	Z13	X14	Y14	Z14	X15	Y15	Z15	X16	Y16	Z16	X17	Y17	Z17	X18	Y18	Z18	X19	Y19	Z19	X20	Y20	Z20	X21	Y21	Z21	X22	Y22	Z22	X23	Y23	Z23	X24	Y24	Z24	X25	Y25	Z25	X26	Y26	Z26	X27	Y27	Z27	X28	Y28	Z28	X29	Y29	Z29	X30	Y30	Z30	X31	Y31	Z31	X32	Y32	Z32	

71	22.485000000000	1015.988552922883	963.381174816839	582.819709122136	1049.235802455795	950.171706790911	346.605981071822	1136.475276402883	1418.090597308726	477.091063362891	1022.221926852917	1484.244845374235	632.788129018281	1018.024758200998	1546.206132617307	447.183397634517	1099.553659692026	1488.604176227345	274.659209481734	1020.056708862315	1175.187381874728	138.939117211001	1107.356495229886	901.130518278736	180.812688850450	923.733918186555	1167.957787782745	768.368522050292	1148.399775084533	988.616378341028	725.607457017071	1109.238158468166	757.035000433654	341.395708860737	1063.423443728543	671.601844811559	294.116334422640	1138.402467935189	635.719710324061	372.835292354506	1167.007691005452	521.786481390791	385.355668697691	1133.108223909974	410.041811221629	396.288127662950	1093.616213501432	335.093167398070	306.237099470222	1116.241431229100	283.023439470547	396.593254705946	1010.586193877675	50.510708270797	377.541825519129	1103.251106627749	27.855726110251	322.818903293964	1196.929852447240	89.057536659588	375.507999527531	1304.792747633643	44.559861243024	383.837298006909	982.227478547020	727.734830954566	602.133862586015	872.154900024611	672.371515816714	644.880820941400	946.364726613372	599.568117707962	583.664960841968	918.195583950475	502.269273826342	612.344348799142	845.041764270068	415.976254570215	568.551131987137	746.099183829509	379.914390027621	639.680288096896	780.464375757133	291.812373222676	565.721691349447	586.987442225042	109.123857247542	523.638903000341	652.487532663712	55.981682892858	595.891892771927	770.582466502304	92.856338520655	582.863044218755	857.491814778522	42.211898677137	578.993512419027	
72	22.500785714286	1017.909067338818	967.016896442086	578.870257658650	1053.269500800321	951.649534527499	343.950626161859	1140.115931521091	1420.091375053596	475.498842396360	1024.056898953208	1486.696676310949	629.635021336884	1022.461104865557	1548.585948606635	443.866241381329	1106.577676650369	1490.835250214365	272.719908959377	1028.617523705594	1177.616503860939	135.708835111028	1116.279088706195	903.994198906348	179.204688228867	922.297549069138	1170.600609476913	763.340159124381	1147.245240858778	991.076368850410	722.513691528947	1111.436645132273	756.783081493095	339.127348573806	1064.127790764683	671.737115791617	291.758544008574	1138.207303303887	635.166433011168	370.985212440469	1165.312876168087	521.032447448029	384.252864610172	1130.211310001549	409.733526886392	395.394401276259	1090.437196589707	334.855406735894	305.476082883879	1111.737094681302	282.959012047855	396.035106257678	1003.875411866736	50.415210678263	377.380345993367	1096.503022824096	28.013572928083	322.624490488370	1190.089391179888	89.270138397835	375.379956057455	1298.134345468093	44.565534983892	383.398037099067	988.488315023461	731.041650460697	601.936294481094	879.628345110360	674.263006306872	644.983817483959	955.985397771526	601.876311583641	585.577137450661	928.649965489820	503.468933481743	615.144084917625	852.552930598224	416.949283502286	570.875139808323	752.462103498318	383.498499443096	641.914607717411	784.197692642123	294.777622027017	567.651705576425	585.144827780675	120.273429515840	524.974829246762	648.186579576911	63.160387470882	596.482025927417	767.918301081207	94.851243995592	584.227551674840	851.843622532755	42.089566009193	579.236334651339	
73	22.516571428571	1019.607448849555	970.631090632672	574.918113619247	1056.858644337492	952.991517079567	341.321689204362	1143.442220618909	1421.838057826767	473.982019261931	1025.600069835926	1488.921698946624	626.449291678154	1026.676686652378	1550.760575562228	440.615143420356	1113.480846608576	1492.862522676608	270.936430448075	1037.354019139863	1179.889041420394	132.426976869142	1125.176011066236	906.659858428555	177.588888597811	921.205610064159	1173.043153065890	758.651001242855	1146.126948273270	993.138536948686	719.236007258459	1112.984328443720	756.514003466608	337.110578886688	1064.258641171023	671.849511646797	289.319195678332	1137.307783066424	634.481489161400	369.070290658158	1162.857856569620	520.199230952567	382.848015255682	1126.709773740181	409.392253453821	394.226705873481	1086.639553854401	334.515737435241	304.510706585140	1106.866929942986	282.876237010838	395.276964907887	997.172234402079	50.362584442276	377.212110876291	1089.791033576434	28.100539358365	322.481636947842	1183.242240447142	89.445938924559	375.290519397345	1291.428910462718	44.710368269428	383.156254542653	994.981254350267	734.433125741878	602.082040663757	887.695096228268	675.975838909662	645.519185173776	966.356107789455	604.243188449956	587.975189936995	939.994945443278	504.660557335362	618.363118886378	861.057634100169	418.086396333391	573.621367274400	759.902320108960	387.231223309968	644.679810673598	788.794693739136	298.056163388775	569.906215027503	584.339473490825	132.455435893619	526.633597319486	644.571453820886	71.297103414567	597.302657504898	765.782210021087	97.457999644582	585.756588656409	846.595587814784	41.921582128862	579.663110896297	
74	22.532357142857	1021.105058329209	974.111125118926	571.109860827075	1060.048920307660	954.199941120316	338.733320287898	1146.400004868670	1423.313652961125	472.530977567099	1026.816437476939	1490.892444877385	623.261309614171	1030.599727470720	1552.694649580905	437.453450951835	1120.133287707708	1494.640650204193	269.306665695405	1046.239256800145	1181.930843650573	129.133551121876	1134.011145113186	909.042021266330	175.976067861951	920.370393101463	1175.212192946541	754.253102819141	1145.039289486107	994.779482151322	715.877428853403	1113.985283849467	756.300730748245	335.394056675160	1064.020146425094	672.010017349646	286.863841911626	1135.921619884850	633.744653369617	367.144797012215	1159.866489820964	519.326219565053	381.192998719052	1122.781965486538	409.024642285241	392.822808487215	1082.381233076472	334.116959999479	303.346942685064	1101.732314247956	282.771233465686	394.335561008408	990.401221563556	50.362149511851	377.020106288359	1083.028652731299	28.116854110075	322.354447935686	1176.360708220980	89.523971184878	375.201734638814	1284.636792277181	44.825180901436	383.052381431937	1001.576413665508	737.920663069037	602.602125473280	896.191755963588	677.582765520025	646.443329423438	977.232491558178	606.731747274717	590.742471347962	951.963510077441	505.950829106422	621.876175833467	870.420315521289	419.462973706886	576.702319637285	768.271233577098	391.174820667407	647.883940910986	794.189239668739	301.700165839615	572.420023887245	584.712147410545	145.621012409418	528.615839499331	641.730907095865	80.413124001145	598.363452119829	764.198871406268	100.718468136009	587.452420347448	841.721333567890	41.652760976002	580.293950587220	
75	22.548142857143	1022.428036104053	977.367764840585	567.573975866200	1062.897322156501	955.280017191512	336.176633596318	1148.960951439623	1424.536232671484	471.136235639407	1027.700718207977	1492.613591091121	620.109410812028	1034.180117749724	1554.388524421696	434.411766353738	1126.408566560919	1496.168338684433	267.824715607649	1055.194539622330	1183.717077532671	125.880918414923	1142.750591821933	911.115318273595	174.359728048048	919.664390133563	1177.076111845527	750.072376731787	1143.953197967728	996.030923895150	712.546379749796	1114.519365244150	756.145176321677	333.895348783414	1063.506598491236	672.227071794518	284.435307729625	1134.210074165479	633.004553466394	365.225294318584	1156.521211091475	518.448492419471	379.371845179100	1118.576424653507	408.642576514448	391.265129482706	1077.799099156734	333.695658219033	302.045755910696	1096.418575198199	282.648396717821	393.270394574203	983.530602258314	50.405556631808	376.807270519652	1076.172709525857	28.080163748987	322.223209422405	1169.428997439730	89.496346890368	375.093296302246	1277.746229048677	44.837171606056	383.019852813240	1008.139663130629	741.543347314225	603.489319785678	904.917049840376	679.194509178584	647.677732892154	988.331100108419	609.418761202798	593.728096024465	964.261175742815	507.464800266899	625.551897148116	880.436384169838	421.157421070504	580.010025259336	777.362109246592	395.386095793226	651.415407300223	800.274103414975	305.748751148850	575.117883375826	586.358639085417	159.671499094522	530.909284574611	639.717265518820	90.472881958057	599.655352734750	763.170088729104	104.610571399605	589.299811607097	837.128880827663	41.230830338139	581.105070750151	
